<svg width="150" height="80" viewBox="0 0 222 205" fill="none" xmlns="http://www.w3.org/2000/svg">
<rect width="222" height="205" rx="50" fill="#284450"/>
<path d="M13 39H54V159V159C31.3563 159 13 140.644 13 118V39Z" fill="#D9D9D9"/>
<path d="M62 39H76C103.614 39 126 61.3858 126 89V103H62V39Z" fill="#F47302"/>
<path d="M61.9886 103.106L90.4413 73.9049" stroke="#284450" stroke-width="15"/>
<path d="M99.4951 64.5302L101.205 89.3843L74.599 63.2798L99.4951 64.5302Z" fill="#284450"/>
<path d="M62.203 132V110.182H70.811C72.4658 110.182 73.8756 110.498 75.0404 111.13C76.2051 111.755 77.0929 112.625 77.7037 113.74C78.3216 114.848 78.6306 116.126 78.6306 117.575C78.6306 119.024 78.3181 120.303 77.6931 121.411C77.0681 122.518 76.1625 123.381 74.9764 123.999C73.7975 124.617 72.3699 124.926 70.6938 124.926H65.2073V121.229H69.948C70.8358 121.229 71.5674 121.077 72.1426 120.771C72.725 120.459 73.1583 120.029 73.4424 119.482C73.7335 118.928 73.8791 118.293 73.8791 117.575C73.8791 116.851 73.7335 116.219 73.4424 115.679C73.1583 115.132 72.725 114.71 72.1426 114.411C71.5603 114.106 70.8216 113.953 69.9267 113.953H66.8159V132H62.203ZM81.6268 132V110.182H90.2348C91.8825 110.182 93.2888 110.477 94.4535 111.066C95.6254 111.648 96.5168 112.476 97.1275 113.548C97.7454 114.614 98.0544 115.867 98.0544 117.309C98.0544 118.758 97.7419 120.004 97.1169 121.048C96.4919 122.085 95.5864 122.881 94.4003 123.435C93.2213 123.989 91.7937 124.266 90.1176 124.266H84.3541V120.558H89.3719C90.2525 120.558 90.9841 120.437 91.5665 120.196C92.1489 119.955 92.5821 119.592 92.8662 119.109C93.1574 118.626 93.303 118.026 93.303 117.309C93.303 116.585 93.1574 115.974 92.8662 115.477C92.5821 114.979 92.1453 114.603 91.5558 114.347C90.9734 114.085 90.2383 113.953 89.3506 113.953H86.2398V132H81.6268ZM93.4095 122.071L98.8321 132H93.7398L88.4344 122.071H93.4095ZM101.314 132V110.182H116.016V113.985H105.927V119.184H115.26V122.987H105.927V128.197H116.059V132H101.314ZM119.683 110.182H125.372L131.381 124.841H131.637L137.645 110.182H143.334V132H138.86V117.799H138.679L133.032 131.893H129.985L124.339 117.746H124.158V132H119.683V110.182ZM151.748 110.182V132H147.135V110.182H151.748ZM169.019 110.182H173.632V124.351C173.632 125.942 173.252 127.334 172.492 128.527C171.74 129.72 170.685 130.651 169.328 131.318C167.972 131.979 166.392 132.309 164.588 132.309C162.777 132.309 161.193 131.979 159.836 131.318C158.48 130.651 157.425 129.72 156.672 128.527C155.919 127.334 155.543 125.942 155.543 124.351V110.182H160.156V123.957C160.156 124.788 160.337 125.526 160.699 126.173C161.068 126.819 161.587 127.327 162.254 127.696C162.922 128.065 163.7 128.25 164.588 128.25C165.482 128.25 166.26 128.065 166.921 127.696C167.588 127.327 168.103 126.819 168.465 126.173C168.835 125.526 169.019 124.788 169.019 123.957V110.182ZM177.428 110.182H183.117L189.125 124.841H189.381L195.389 110.182H201.078V132H196.604V117.799H196.423L190.776 131.893H187.729L182.083 117.746H181.902V132H177.428V110.182Z" fill="white"/>
<path d="M63.0112 159V138.636H64.8706V157.33H74.5752V159H63.0112ZM94.6629 148.818C94.6629 150.939 94.285 152.786 93.5294 154.357C92.7737 155.921 91.733 157.134 90.4072 157.996C89.0881 158.851 87.5701 159.278 85.8532 159.278C84.1364 159.278 82.6151 158.851 81.2893 157.996C79.9702 157.134 78.9328 155.921 78.1771 154.357C77.428 152.786 77.0535 150.939 77.0535 148.818C77.0535 146.697 77.428 144.854 78.1771 143.29C78.9328 141.719 79.9735 140.506 81.2992 139.651C82.625 138.789 84.143 138.358 85.8532 138.358C87.5701 138.358 89.0881 138.789 90.4072 139.651C91.733 140.506 92.7737 141.719 93.5294 143.29C94.285 144.854 94.6629 146.697 94.6629 148.818ZM92.8532 148.818C92.8532 146.995 92.5483 145.434 91.9384 144.135C91.3286 142.829 90.4967 141.831 89.4427 141.142C88.3887 140.453 87.1922 140.108 85.8532 140.108C84.5208 140.108 83.3277 140.453 82.2737 141.142C81.2197 141.831 80.3845 142.826 79.768 144.125C79.1581 145.424 78.8532 146.989 78.8532 148.818C78.8532 150.641 79.1581 152.202 79.768 153.501C80.3778 154.801 81.2098 155.798 82.2637 156.494C83.3177 157.184 84.5142 157.528 85.8532 157.528C87.1922 157.528 88.3887 157.184 89.4427 156.494C90.5033 155.805 91.3385 154.811 91.9484 153.511C92.5582 152.205 92.8599 150.641 92.8532 148.818ZM113.249 145C113.064 144.324 112.792 143.691 112.434 143.101C112.076 142.504 111.632 141.984 111.101 141.54C110.578 141.089 109.971 140.738 109.282 140.486C108.599 140.234 107.837 140.108 106.995 140.108C105.669 140.108 104.483 140.453 103.435 141.142C102.388 141.831 101.559 142.826 100.949 144.125C100.346 145.424 100.045 146.989 100.045 148.818C100.045 150.641 100.35 152.202 100.959 153.501C101.569 154.801 102.404 155.798 103.465 156.494C104.532 157.184 105.752 157.528 107.124 157.528C108.377 157.528 109.484 157.25 110.445 156.693C111.406 156.136 112.155 155.341 112.692 154.307C113.236 153.273 113.501 152.043 113.488 150.618L114.084 150.807H107.562V149.136H115.297V150.807C115.297 152.544 114.946 154.045 114.243 155.311C113.541 156.577 112.576 157.555 111.35 158.244C110.124 158.934 108.715 159.278 107.124 159.278C105.348 159.278 103.793 158.851 102.461 157.996C101.128 157.134 100.091 155.921 99.3486 154.357C98.6128 152.786 98.2449 150.939 98.2449 148.818C98.2449 147.221 98.457 145.779 98.8813 144.493C99.3055 143.207 99.9054 142.107 100.681 141.192C101.463 140.277 102.388 139.578 103.455 139.094C104.522 138.603 105.702 138.358 106.995 138.358C108.109 138.358 109.126 138.534 110.047 138.885C110.975 139.236 111.791 139.72 112.493 140.337C113.203 140.946 113.783 141.652 114.234 142.455C114.691 143.25 114.999 144.098 115.158 145H113.249ZM121.773 138.636V159H119.914V138.636H121.773ZM138.244 143.727C138.131 142.594 137.631 141.692 136.742 141.023C135.854 140.353 134.737 140.018 133.392 140.018C132.444 140.018 131.608 140.181 130.886 140.506C130.17 140.83 129.607 141.281 129.196 141.858C128.791 142.428 128.589 143.078 128.589 143.807C128.589 144.344 128.705 144.814 128.937 145.219C129.169 145.623 129.481 145.971 129.872 146.263C130.269 146.548 130.707 146.793 131.184 146.999C131.668 147.204 132.155 147.376 132.646 147.516L134.794 148.132C135.443 148.311 136.093 148.54 136.742 148.818C137.392 149.097 137.985 149.448 138.522 149.872C139.066 150.29 139.5 150.804 139.825 151.413C140.156 152.017 140.322 152.742 140.322 153.591C140.322 154.678 140.04 155.656 139.477 156.524C138.913 157.393 138.105 158.082 137.051 158.592C135.997 159.096 134.734 159.348 133.262 159.348C131.877 159.348 130.674 159.119 129.653 158.662C128.632 158.198 127.83 157.558 127.247 156.743C126.663 155.928 126.335 154.983 126.262 153.909H128.171C128.238 154.711 128.503 155.391 128.967 155.947C129.431 156.504 130.034 156.929 130.777 157.22C131.519 157.505 132.348 157.648 133.262 157.648C134.277 157.648 135.178 157.479 135.967 157.141C136.762 156.796 137.385 156.319 137.836 155.709C138.294 155.092 138.522 154.376 138.522 153.561C138.522 152.872 138.343 152.295 137.985 151.831C137.627 151.36 137.127 150.966 136.484 150.648C135.848 150.33 135.108 150.048 134.267 149.803L131.83 149.087C130.233 148.609 128.993 147.95 128.112 147.108C127.23 146.266 126.789 145.192 126.789 143.886C126.789 142.793 127.081 141.831 127.664 141.003C128.254 140.168 129.05 139.518 130.051 139.054C131.058 138.583 132.188 138.348 133.441 138.348C134.707 138.348 135.828 138.58 136.802 139.044C137.777 139.508 138.549 140.148 139.119 140.963C139.696 141.772 140.004 142.693 140.044 143.727H138.244ZM143.563 140.307V138.636H158.329V140.307H151.876V159H150.017V140.307H143.563ZM164.375 138.636V159H162.515V138.636H164.375ZM185.737 145H183.868C183.729 144.304 183.477 143.661 183.112 143.071C182.755 142.474 182.304 141.954 181.76 141.51C181.217 141.066 180.6 140.721 179.911 140.476C179.221 140.231 178.476 140.108 177.674 140.108C176.388 140.108 175.214 140.443 174.154 141.112C173.1 141.782 172.255 142.766 171.618 144.065C170.988 145.358 170.674 146.942 170.674 148.818C170.674 150.707 170.988 152.298 171.618 153.591C172.255 154.884 173.1 155.865 174.154 156.534C175.214 157.197 176.388 157.528 177.674 157.528C178.476 157.528 179.221 157.406 179.911 157.161C180.6 156.915 181.217 156.574 181.76 156.136C182.304 155.692 182.755 155.172 183.112 154.575C183.477 153.979 183.729 153.332 183.868 152.636H185.737C185.572 153.571 185.26 154.443 184.803 155.251C184.352 156.054 183.775 156.756 183.073 157.359C182.377 157.963 181.575 158.433 180.666 158.771C179.758 159.109 178.761 159.278 177.674 159.278C175.963 159.278 174.445 158.851 173.12 157.996C171.794 157.134 170.753 155.921 169.997 154.357C169.248 152.792 168.874 150.946 168.874 148.818C168.874 146.69 169.248 144.844 169.997 143.28C170.753 141.715 171.794 140.506 173.12 139.651C174.445 138.789 175.963 138.358 177.674 138.358C178.761 138.358 179.758 138.527 180.666 138.865C181.575 139.196 182.377 139.667 183.073 140.277C183.775 140.88 184.352 141.583 184.803 142.385C185.26 143.187 185.572 144.059 185.737 145ZM201.162 143.727C201.049 142.594 200.549 141.692 199.66 141.023C198.772 140.353 197.655 140.018 196.31 140.018C195.362 140.018 194.526 140.181 193.804 140.506C193.088 140.83 192.525 141.281 192.114 141.858C191.709 142.428 191.507 143.078 191.507 143.807C191.507 144.344 191.623 144.814 191.855 145.219C192.087 145.623 192.399 145.971 192.79 146.263C193.187 146.548 193.625 146.793 194.102 146.999C194.586 147.204 195.073 147.376 195.564 147.516L197.712 148.132C198.361 148.311 199.011 148.54 199.66 148.818C200.31 149.097 200.903 149.448 201.44 149.872C201.984 150.29 202.418 150.804 202.743 151.413C203.074 152.017 203.24 152.742 203.24 153.591C203.24 154.678 202.958 155.656 202.395 156.524C201.831 157.393 201.023 158.082 199.969 158.592C198.915 159.096 197.652 159.348 196.18 159.348C194.795 159.348 193.592 159.119 192.571 158.662C191.55 158.198 190.748 157.558 190.165 156.743C189.581 155.928 189.253 154.983 189.18 153.909H191.089C191.156 154.711 191.421 155.391 191.885 155.947C192.349 156.504 192.952 156.929 193.694 157.22C194.437 157.505 195.266 157.648 196.18 157.648C197.194 157.648 198.096 157.479 198.885 157.141C199.68 156.796 200.303 156.319 200.754 155.709C201.212 155.092 201.44 154.376 201.44 153.561C201.44 152.872 201.261 152.295 200.903 151.831C200.545 151.36 200.045 150.966 199.402 150.648C198.766 150.33 198.026 150.048 197.185 149.803L194.748 149.087C193.151 148.609 191.911 147.95 191.03 147.108C190.148 146.266 189.707 145.192 189.707 143.886C189.707 142.793 189.999 141.831 190.582 141.003C191.172 140.168 191.968 139.518 192.969 139.054C193.976 138.583 195.106 138.348 196.359 138.348C197.625 138.348 198.746 138.58 199.72 139.044C200.694 139.508 201.467 140.148 202.037 140.963C202.614 141.772 202.922 142.693 202.962 143.727H201.162Z" fill="white"/>
</svg>
